<mxfile host="app.diagrams.net" modified="2023-12-11T07:24:44.109Z" agent="Mozilla/5.0 (Windows NT 10.0; Win64; x64) AppleWebKit/537.36 (KHTML, like Gecko) Chrome/120.0.0.0 Safari/537.36" version="22.1.7" etag="p5vJ5dpe-Yp5DYSVQyBs" type="github">
  <diagram name="第 1 页" id="TMo2GhfrPvwD25vTUP7w">
    <mxGraphModel>
      <root>
        <mxCell id="0" />
        <mxCell id="1" parent="0" />
      </root>
    </mxGraphModel>
  </diagram>
</mxfile>
